<svg width="432" height="150" viewBox="0 0 432 150" fill="none" xmlns="http://www.w3.org/2000/svg">
  <rect width="432" height="150" rx="12" fill="url(#bg)"/>
  <rect x="0" y="112" width="432" height="38" fill="#E9E1D2"/>
  <rect x="0" y="94" width="432" height="18" fill="#F5F2EA"/>
  <rect x="228" y="116" width="154" height="16" rx="3" fill="#242424"/>
  <rect x="234" y="112" width="142" height="8" rx="2" fill="#3A3A3A"/>
  <circle cx="250" cy="124" r="5" fill="#535353"/>
  <circle cx="274" cy="124" r="5" fill="#535353"/>
  <circle cx="300" cy="124" r="5" fill="#535353"/>
  <circle cx="327" cy="124" r="5" fill="#535353"/>
  <circle cx="352" cy="124" r="5" fill="#535353"/>
  <rect x="56" y="72" width="18" height="42" rx="4" fill="#D7E0D8"/>
  <path d="M66 72C66 50 81 28 92 12" stroke="#88A975" stroke-width="2.5" stroke-linecap="round"/>
  <path d="M68 72C68 56 58 39 44 24" stroke="#9EBB88" stroke-width="2.5" stroke-linecap="round"/>
  <path d="M66 72C66 54 72 36 82 18" stroke="#739660" stroke-width="2" stroke-linecap="round"/>
  <ellipse cx="91" cy="14" rx="8" ry="20" transform="rotate(24 91 14)" fill="#A4BF8F"/>
  <ellipse cx="43" cy="25" rx="7" ry="17" transform="rotate(-38 43 25)" fill="#B8CCA0"/>
  <ellipse cx="81" cy="19" rx="6" ry="16" transform="rotate(16 81 19)" fill="#90B27C"/>
  <rect x="88" y="104" width="24" height="8" rx="4" fill="#D9B46A"/>
  <circle cx="92" cy="100" r="10" fill="#F5F1EA"/>
  <circle cx="108" cy="100" r="8" fill="#F1ECE2"/>
  <defs>
    <linearGradient id="bg" x1="16" y1="12" x2="378" y2="150" gradientUnits="userSpaceOnUse">
      <stop stop-color="#F3F0E8"/>
      <stop offset="0.55" stop-color="#D0C8B6"/>
      <stop offset="1" stop-color="#A89F8F"/>
    </linearGradient>
  </defs>
</svg>
