<svg width="432" height="150" viewBox="0 0 432 150" fill="none" xmlns="http://www.w3.org/2000/svg">
  <rect width="432" height="150" rx="12" fill="url(#bg)"/>
  <rect x="0" y="0" width="72" height="150" fill="url(#wall)"/>
  <rect x="88" y="28" width="116" height="54" rx="6" fill="#A2B7A8"/>
  <rect x="108" y="40" width="28" height="20" rx="4" fill="#F7F7F2"/>
  <rect x="150" y="40" width="34" height="20" rx="4" fill="#EDECE4"/>
  <rect x="180" y="28" width="3" height="80" fill="#C8843B"/>
  <rect x="180" y="106" width="3" height="22" fill="#C8843B"/>
  <path d="M116 96H316C322.627 96 328 101.373 328 108V112H104V108C104 101.373 109.373 96 116 96Z" fill="#F6F5F1"/>
  <path d="M86 112H330V118C330 127.941 321.941 136 312 136H104C94.0589 136 86 127.941 86 118V112Z" fill="#FCFCFA"/>
  <path d="M336 0H432V150H336V0Z" fill="#7E9288" fill-opacity="0.55"/>
  <path d="M222 24H224V102H222V24Z" fill="#C8843B"/>
  <path d="M222 40H270V42H222V40Z" fill="#C8843B"/>
  <path d="M268 40H270V112H268V40Z" fill="#C8843B"/>
  <path d="M32 122C32 102 50 88 72 88V136H40C35.5817 136 32 132.418 32 128V122Z" fill="#5E8C62"/>
  <path d="M24 126C24 112 38 100 54 100V136H34C28.4772 136 24 131.523 24 126Z" fill="#7AA37A"/>
  <defs>
    <linearGradient id="bg" x1="0" y1="0" x2="432" y2="150" gradientUnits="userSpaceOnUse">
      <stop stop-color="#E7E8E2"/>
      <stop offset="0.5" stop-color="#A0B3A7"/>
      <stop offset="1" stop-color="#8FA39A"/>
    </linearGradient>
    <linearGradient id="wall" x1="0" y1="0" x2="72" y2="0" gradientUnits="userSpaceOnUse">
      <stop stop-color="#F8F6F1"/>
      <stop offset="1" stop-color="#E8E5DE"/>
    </linearGradient>
  </defs>
</svg>
